<?xml version="1.0" standalone="no"?>
<!DOCTYPE svg PUBLIC "-//W3C//DTD SVG 20010904//EN"
 "http://www.w3.org/TR/2001/REC-SVG-20010904/DTD/svg10.dtd">
<svg version="1.0" xmlns="http://www.w3.org/2000/svg"
 width="332.000000pt" height="332.000000pt" viewBox="0 0 332.000000 332.000000"
 preserveAspectRatio="xMidYMid meet">
<metadata>
Created by potrace 1.11, written by Peter Selinger 2001-2013
</metadata>
<g transform="translate(0.000000,332.000000) scale(0.100000,-0.100000)"
fill="#000000" stroke="none">
<path d="M974 3258 c-6 -7 -104 -170 -219 -363 -114 -192 -215 -356 -224 -363
-9 -7 -16 -18 -16 -25 0 -7 -13 -35 -29 -63 l-30 -51 -72 43 c-48 30 -83 44
-107 44 -39 0 -47 -12 -47 -65 0 -40 53 -249 76 -302 10 -21 16 -42 15 -47 -1
-5 8 -37 19 -72 15 -45 20 -75 15 -106 -6 -40 -3 -46 29 -81 41 -42 44 -66 20
-147 -21 -71 -15 -118 28 -217 l35 -80 -34 -66 c-88 -175 -112 -335 -71 -470
55 -184 258 -493 367 -561 58 -36 200 -93 290 -116 78 -21 86 -21 125 -6 60
23 69 21 128 -30 95 -81 84 -79 348 -79 230 0 236 1 273 24 21 13 45 34 53 46
27 41 64 49 155 35 44 -7 102 -10 129 -7 64 8 221 73 322 134 102 61 161 119
238 234 128 192 188 362 171 484 -11 72 -30 146 -42 161 -5 6 -6 14 -2 17 3 4
1 7 -5 7 -7 0 -11 3 -11 7 1 5 1 10 -1 13 -1 3 -3 15 -6 27 -2 12 -18 54 -35
92 l-31 70 16 63 c20 80 20 119 1 202 -17 73 -14 84 38 153 18 25 24 47 26 90
1 45 14 86 55 183 132 310 151 392 92 398 -15 2 -26 -1 -23 -6 4 -5 0 -9 -8
-9 -8 0 -12 3 -10 7 17 27 -304 -123 -479 -224 l-78 -45 -46 50 c-41 46 -153
139 -166 139 -13 0 -5 -78 9 -90 18 -15 22 -175 5 -185 -5 -3 -10 -17 -10 -31
0 -22 -3 -23 -20 -14 -11 6 -20 17 -20 24 0 23 -28 27 -35 5 -9 -27 -25 -24
-25 6 0 18 5 25 20 25 27 0 40 29 40 90 0 61 -13 90 -42 90 -17 0 -18 3 -9 14
7 8 14 35 16 61 5 58 -8 72 -109 114 -153 64 -212 75 -411 75 -179 1 -181 1
-275 -32 -180 -63 -349 -173 -447 -291 -29 -36 -53 -70 -53 -75 0 -6 -4 -17
-9 -24 -6 -11 -23 -4 -75 28 -125 76 -261 170 -246 170 8 -1 51 -10 95 -21 89
-22 99 -24 171 -34 49 -7 52 -6 80 28 43 52 150 139 227 185 128 76 332 147
460 159 132 12 358 -28 502 -88 38 -16 75 -29 82 -29 10 0 13 52 13 234 0 129
-4 237 -8 240 -8 5 -113 17 -145 17 -9 0 -15 4 -13 8 3 4 -84 26 -192 50 -108
24 -219 49 -247 56 -27 7 -84 20 -125 29 -41 9 -149 33 -240 52 -212 47 -224
49 -236 32z m1001 -1158 c47 -7 44 -7 -35 -9 -47 0 -137 -4 -200 -7 -123 -7
-144 2 -39 15 82 11 210 11 274 1z m-175 -52 c177 3 329 -8 357 -26 7 -5 7
-43 0 -119 l-10 -112 -58 30 c-69 34 -97 36 -127 9 -12 -11 -23 -20 -25 -20
-2 0 -15 32 -28 70 -13 39 -26 70 -30 70 -3 0 -12 -35 -19 -77 -19 -123 -22
-124 -54 -17 -18 57 -32 90 -36 82 -4 -7 -16 -48 -26 -91 -10 -44 -21 -72 -25
-65 -4 7 -12 55 -19 106 -7 51 -16 89 -20 85 -9 -10 -50 -176 -50 -203 0 -34
-20 -22 -21 13 -1 49 -35 174 -42 157 -4 -8 -15 -51 -25 -95 l-18 -80 -28 80
c-15 44 -32 84 -36 88 -4 5 -16 -25 -26 -67 -10 -42 -21 -76 -26 -76 -4 0 -8
4 -8 10 0 5 -9 14 -21 20 -15 9 -32 7 -72 -6 -103 -33 -223 -87 -281 -125 -32
-21 -59 -39 -60 -39 -1 0 -53 -48 -114 -107 -121 -117 -263 -299 -314 -402
-41 -81 -47 -159 -23 -268 41 -183 141 -414 196 -454 16 -11 46 -25 66 -31 40
-11 127 -88 157 -139 l19 -32 -29 7 c-49 12 -155 68 -165 88 -5 10 -16 18 -23
18 -20 0 -125 116 -182 201 -75 113 -151 271 -169 354 -15 68 -16 82 -2 149 8
40 40 137 71 214 31 77 56 145 56 150 0 6 6 13 13 16 8 3 6 9 -7 20 -17 14
-18 16 -3 16 22 0 22 9 0 26 -17 13 -17 13 2 14 12 0 26 -5 32 -11 8 -8 13 -7
18 2 6 8 4 10 -5 4 -8 -5 -11 -3 -8 6 3 8 -2 22 -11 33 -15 18 -15 18 7 12 29
-10 28 5 -3 34 -32 30 -27 34 18 15 35 -14 36 -14 32 6 -3 12 -12 31 -22 42
-20 22 -25 22 54 1 30 -8 30 12 1 43 -25 27 -15 29 35 8 49 -20 53 -6 12 41
-39 44 -39 55 2 27 48 -34 52 -34 63 -12 7 12 8 19 2 15 -9 -5 -42 34 -42 49
0 3 20 -6 44 -20 42 -25 44 -25 39 -5 -3 11 -9 23 -14 26 -17 10 -9 26 9 19
47 -18 66 -13 40 13 -18 18 -1 27 26 14 32 -14 39 -5 19 24 -18 29 -4 32 39
10 26 -14 27 -13 24 6 -1 12 -11 25 -21 28 -15 5 -16 8 -4 12 8 3 26 0 40 -8
41 -22 55 -17 29 11 -20 21 -21 25 -6 25 9 0 26 -5 37 -11 18 -9 20 -8 17 13
-3 20 2 24 42 29 25 4 61 12 80 18 19 6 73 11 120 11 58 -1 105 5 150 19 51
16 79 19 130 13 36 -4 153 -6 260 -4z m488 -62 c70 -37 99 -60 95 -74 -3 -7 1
-10 10 -6 17 6 32 -12 17 -21 -5 -3 -10 -11 -10 -17 0 -6 6 -6 15 2 22 19 44
-3 25 -25 -17 -20 -1 -19 22 2 21 19 36 10 18 -11 -24 -30 -5 -39 27 -12 38
32 54 34 26 4 -46 -52 -36 -66 16 -22 34 28 43 18 11 -11 -20 -18 -27 -45 -12
-45 4 0 18 9 32 20 35 28 45 25 22 -7 -37 -55 -38 -59 -9 -40 38 25 44 21 16
-9 l-24 -27 33 17 c37 19 52 17 27 -4 -26 -22 -16 -31 16 -15 44 23 47 12 5
-20 -54 -41 -43 -49 17 -15 68 38 76 38 37 -1 -37 -37 -34 -47 9 -25 41 22 48
20 25 -6 l-19 -21 32 6 c18 4 35 2 38 -3 3 -5 -2 -56 -11 -114 -16 -99 -16
-106 0 -131 30 -46 85 -184 105 -263 43 -175 37 -240 -39 -398 -90 -186 -224
-338 -373 -423 -104 -58 -181 -88 -247 -96 l-55 -6 35 28 c19 15 55 47 81 70
25 23 83 60 130 81 92 43 118 66 200 189 108 159 179 354 179 488 -1 186 -91
361 -234 453 -22 14 -107 78 -189 142 -134 105 -148 118 -154 153 -3 20 -10
37 -16 37 -6 0 -5 5 2 13 8 10 7 17 -1 25 -8 8 -8 15 0 25 8 9 10 35 6 76 -8
71 -5 72 64 37z m-610 -439 c20 -22 53 -86 58 -117 2 -8 15 -96 29 -195 28
-200 47 -269 110 -396 55 -112 79 -143 131 -171 44 -23 44 -23 44 -79 0 -55 1
-57 31 -63 48 -9 79 2 79 30 0 30 3 30 46 -3 54 -41 85 -101 83 -162 -1 -28
-6 -51 -11 -51 -4 0 -8 -9 -8 -20 0 -11 -5 -20 -11 -20 -5 0 -8 -4 -5 -9 7
-10 -69 -82 -78 -74 -3 4 -6 1 -6 -6 0 -7 -4 -10 -9 -6 -5 3 -12 2 -14 -2 -3
-5 -34 -9 -69 -11 -87 -4 -118 -16 -163 -62 -38 -38 -59 -49 -68 -32 -2 4 -3
2 -1 -4 4 -18 -39 -23 -213 -21 -88 1 -159 -2 -156 -6 3 -5 -3 -4 -14 2 -14 7
-24 7 -33 -2 -10 -9 -11 -9 -5 1 5 9 1 12 -11 10 -11 -2 -18 2 -17 9 2 7 -4
10 -12 7 -8 -3 -39 13 -72 39 -83 64 -97 70 -154 62 -39 -6 -58 -2 -101 18
-68 31 -114 70 -137 116 -22 43 -34 101 -22 101 5 0 7 9 4 20 -3 12 0 20 6 20
7 0 9 4 6 10 -3 5 2 23 11 40 13 21 20 26 26 17 5 -8 8 -7 8 5 0 23 63 58 194
109 67 25 123 54 145 74 20 18 72 95 115 170 l79 137 24 151 c48 300 75 387
122 387 10 0 27 -10 39 -23z m-702 -427 c-1 -82 20 -114 74 -112 49 1 93 52
110 127 l7 30 46 -47 c51 -52 78 -118 60 -146 -5 -10 -25 -26 -44 -37 -46 -27
-227 -29 -275 -3 -17 10 -35 14 -40 10 -5 -4 -6 -3 -1 2 4 5 -4 21 -17 35 -30
31 -56 100 -56 147 0 31 3 34 43 44 23 6 47 13 52 15 36 13 41 6 41 -65z
m1420 24 l65 -17 -6 -41 c-12 -74 -52 -143 -99 -171 -24 -14 -55 -25 -69 -25
-25 0 -27 3 -27 40 0 28 7 46 25 64 22 22 25 34 25 96 0 42 4 70 10 70 6 0 40
-7 76 -16z m-320 -146 c-3 -50 -8 -93 -10 -95 -8 -8 -45 17 -56 38 -8 14 -8
30 0 55 11 32 55 94 67 94 3 0 3 -41 -1 -92z"/>
<path d="M510 1200 c0 -5 5 -10 10 -10 6 0 10 5 10 10 0 6 -4 10 -10 10 -5 0
-10 -4 -10 -10z"/>
<path d="M510 760 c0 -5 5 -10 10 -10 6 0 10 5 10 10 0 6 -4 10 -10 10 -5 0
-10 -4 -10 -10z"/>
<path d="M2710 1420 c0 -5 5 -10 10 -10 6 0 10 5 10 10 0 6 -4 10 -10 10 -5 0
-10 -4 -10 -10z"/>
<path d="M1424 641 c17 -17 40 -31 52 -31 35 0 54 -11 54 -31 0 -10 14 -26 30
-36 21 -12 30 -25 30 -43 0 -23 -8 -28 -71 -50 -86 -29 -109 -46 -165 -123
-47 -63 -52 -77 -30 -77 8 0 28 24 44 54 39 69 66 89 158 120 68 23 78 24 113
11 79 -28 121 -57 187 -130 37 -41 71 -75 76 -75 24 0 0 37 -69 108 -62 63
-92 84 -145 107 -57 23 -68 32 -68 51 0 16 11 31 35 46 19 13 35 31 35 41 0
13 8 17 34 17 19 0 51 9 70 21 46 27 46 33 2 15 -34 -14 -35 -14 -45 12 -9 25
-9 25 -10 5 -1 -18 -7 -23 -29 -23 -32 0 -52 -16 -52 -42 0 -9 -9 -22 -20 -28
-18 -10 -20 -8 -20 25 0 19 -4 35 -10 35 -5 0 -10 -10 -10 -22 0 -13 -4 -28
-8 -35 -11 -18 -37 7 -37 37 0 22 -5 25 -42 28 -24 2 -43 8 -43 13 0 6 -5 7
-10 4 -6 -4 -23 1 -38 11 l-27 17 29 -32z"/>
<path d="M2050 980 c0 -5 5 -10 10 -10 6 0 10 5 10 10 0 6 -4 10 -10 10 -5 0
-10 -4 -10 -10z"/>
<path d="M2220 2745 l0 -244 53 -34 c73 -47 176 -138 212 -186 17 -22 33 -41
36 -41 9 0 532 561 527 566 -5 4 -805 184 -820 184 -4 0 -8 -110 -8 -245z"/>
<path d="M2050 2520 c0 -5 5 -10 10 -10 6 0 10 5 10 10 0 6 -4 10 -10 10 -5 0
-10 -4 -10 -10z"/>
</g>
</svg>
